<?xml version="1.0" encoding="utf-8"?>
<!-- Generator: Adobe Illustrator 25.2.0, SVG Export Plug-In . SVG Version: 6.00 Build 0)  -->
<svg version="1.1" id="Layer_1" xmlns="http://www.w3.org/2000/svg" xmlns:xlink="http://www.w3.org/1999/xlink" x="0px" y="0px"
	 viewBox="0 0 1331 469" style="enable-background:new 0 0 1331 469;" xml:space="preserve">
<style type="text/css">
	.st0{enable-background:new    ;}
	.st1{fill:#FFFFFF;}
	.st2{fill:none;stroke:#FFFFFF;}
</style>
<g class="st0">
	<path class="st1" d="M5,5.6h140.1v42H57.4V93H123v40.8H57.4v87.1H5V5.6z"/>
	<path class="st1" d="M172.7,5.6h52.4v215.3h-52.4V5.6z"/>
	<path class="st1" d="M455.8,5.6v215.3h-52.4L315.6,88v132.8h-52.4V5.6h52.4L403.3,139V5.6H455.8z"/>
	<path class="st1" d="M625.7,47.6h-79.4v43.5h70.2v40.5h-70.2v47.2h79.4v42H493.8V5.6h131.9V47.6z"/>
	<path class="st1" d="M777.2,5.6v174.8h68.7v40.5H724.8V5.6H777.2z"/>
	<path class="st1" d="M871,5.6h52.4v215.3H871V5.6z"/>
	<path class="st1" d="M1154.1,5.6v215.3h-52.4L1014,88v132.8h-52.4V5.6h52.4l87.7,133.4V5.6H1154.1z"/>
	<path class="st1" d="M1324,47.6h-79.4v43.5h70.2v40.5h-70.2v47.2h79.4v42h-131.9V5.6H1324V47.6z"/>
</g>
<g class="st0">
	<path class="st1" d="M41.2,378.9c16.4,0,28.8,9.2,32.7,24.2H55.5c-2.8-5.9-8.1-8.8-14.5-8.8c-10.3,0-17.4,7.7-17.4,19.9
		S30.7,434,41,434c6.4,0,11.6-2.9,14.5-8.8h18.5c-3.9,14.9-16.3,24.1-32.7,24.1c-20.4,0-34.7-14.5-34.7-35.1
		C6.5,393.5,20.9,378.9,41.2,378.9z"/>
	<path class="st1" d="M156.2,449.4c-19.6,0-35.5-14.6-35.5-35.4c0-20.7,15.9-35.3,35.5-35.3c19.7,0,35.3,14.6,35.3,35.3
		C191.5,434.8,175.8,449.4,156.2,449.4z M156.2,434.1c11,0,18.2-8,18.2-20.1c0-12.3-7.2-20.1-18.2-20.1c-11.2,0-18.3,7.8-18.3,20.1
		C137.9,426.1,145,434.1,156.2,434.1z"/>
	<path class="st1" d="M301.9,379.7v69h-16.8L257,406.1v42.6h-16.8v-69H257l28.1,42.8v-42.8H301.9z"/>
	<path class="st1" d="M378.4,449.4c-14.8,0-26.5-7.4-26.9-21.3h17.9c0.5,5.3,3.8,7.9,8.6,7.9c4.9,0,8.1-2.5,8.1-6.5
		c0-12.8-34.5-5.9-34.3-30.4c0-13.1,10.7-20.4,25.2-20.4c15,0,25.2,7.5,25.9,20.6h-18.2c-0.3-4.4-3.4-7.1-8-7.2
		c-4-0.1-7.1,2-7.1,6.3c0,12,34.1,6.6,34.1,29.7C403.5,439.8,394.5,449.4,378.4,449.4z"/>
	<path class="st1" d="M449.4,379.7h53.4v13.5h-18.3v55.6h-16.8v-55.6h-18.3V379.7z"/>
	<path class="st1" d="M578.8,379.7c16.9,0,25.4,9.7,25.4,21.7c0,8.6-4.7,16.8-15.3,20l15.9,27.3h-19l-14.4-26.1h-4v26.1h-16.8v-69
		H578.8z M577.8,393.7h-10.4v17.1h10.4c6.3,0,9.2-3.2,9.2-8.6C587,397,584.1,393.7,577.8,393.7z"/>
	<path class="st1" d="M653.7,379.7h16.8V421c0,8.2,4,12.9,12,12.9c8,0,12.2-4.7,12.2-12.9v-41.3h16.8v41.2
		c0,19.1-13.4,28.5-29.3,28.5c-16,0-28.5-9.4-28.5-28.5V379.7z"/>
	<path class="st1" d="M794.4,378.9c16.4,0,28.8,9.2,32.7,24.2h-18.5c-2.9-5.9-8.1-8.8-14.5-8.8c-10.3,0-17.4,7.7-17.4,19.9
		s7.1,19.9,17.4,19.9c6.4,0,11.6-2.9,14.5-8.8h18.5c-3.9,14.9-16.3,24.1-32.7,24.1c-20.3,0-34.7-14.5-34.7-35.1
		C759.7,393.5,774.1,378.9,794.4,378.9z"/>
	<path class="st1" d="M873.1,379.7h53.4v13.5h-18.3v55.6h-16.8v-55.6h-18.3V379.7z"/>
	<path class="st1" d="M974.2,379.7H991v69h-16.8V379.7z"/>
	<path class="st1" d="M1075.2,449.4c-19.6,0-35.5-14.6-35.5-35.4c0-20.7,15.9-35.3,35.5-35.3c19.7,0,35.3,14.6,35.3,35.3
		C1110.5,434.8,1094.7,449.4,1075.2,449.4z M1075.2,434.1c11,0,18.2-8,18.2-20.1c0-12.3-7.2-20.1-18.2-20.1
		c-11.2,0-18.3,7.8-18.3,20.1C1056.9,426.1,1063.9,434.1,1075.2,434.1z"/>
	<path class="st1" d="M1220.8,379.7v69H1204l-28.1-42.6v42.6h-16.8v-69h16.8l28.1,42.8v-42.8H1220.8z"/>
	<path class="st1" d="M1297.3,449.4c-14.8,0-26.5-7.4-26.9-21.3h17.9c0.5,5.3,3.8,7.9,8.6,7.9c4.9,0,8.1-2.5,8.1-6.5
		c0-12.8-34.5-5.9-34.3-30.4c0-13.1,10.7-20.4,25.2-20.4c15,0,25.2,7.5,25.9,20.6h-18.2c-0.3-4.4-3.4-7.1-8-7.2
		c-4-0.1-7.1,2-7.1,6.3c0,12,34.1,6.6,34.1,29.7C1322.5,439.8,1313.4,449.4,1297.3,449.4z"/>
</g>
<line id="Line_1" class="st2" x1="6.5" y1="301.7" x2="1322.5" y2="301.7"/>
</svg>
